<svg width="24" height="34" viewBox="0 0 24 34" fill="none" xmlns="http://www.w3.org/2000/svg">
<path d="M11.9999 0.333344C5.54992 0.333344 0.333252 5.55001 0.333252 12C0.333252 20.75 11.9999 33.6667 11.9999 33.6667C11.9999 33.6667 23.6666 20.75 23.6666 12C23.6666 5.55001 18.4499 0.333344 11.9999 0.333344ZM11.9999 16.1667C10.8949 16.1667 9.83504 15.7277 9.05364 14.9463C8.27224 14.1649 7.83325 13.1051 7.83325 12C7.83325 10.8949 8.27224 9.83513 9.05364 9.05373C9.83504 8.27233 10.8949 7.83334 11.9999 7.83334C13.105 7.83334 14.1648 8.27233 14.9462 9.05373C15.7276 9.83513 16.1666 10.8949 16.1666 12C16.1666 13.1051 15.7276 14.1649 14.9462 14.9463C14.1648 15.7277 13.105 16.1667 11.9999 16.1667Z" fill="#EC6E4D"/>
</svg>
